<svg width="215" height="117" viewBox="0 0 215 117" fill="none" xmlns="http://www.w3.org/2000/svg">
<g clip-path="url(#clip0_252_308)">
<path d="M87.1144 47.8801C92.0344 47.8801 95.8344 49.8601 98.8544 53.5101C99.4144 54.2201 99.2544 55.1801 98.4544 55.7301L94.8044 59.2201C94.0944 59.8501 93.3744 59.4601 92.8244 58.9801C91.5544 57.5501 89.5744 56.4401 87.3544 56.4401C83.0744 56.4401 79.5844 60.0901 79.5844 64.5301C79.5844 68.9701 82.9944 72.6201 87.2744 72.6201C90.6844 72.6201 92.1944 70.9501 93.6144 69.6101C94.1744 69.0501 94.9644 68.9001 95.5944 69.3701L99.0044 72.3001C99.7944 72.9301 100.114 73.7301 99.5644 74.5201C96.8644 78.7201 92.6644 81.1801 87.0344 81.1801C78.0744 81.1801 70.2244 74.0401 70.2244 64.5201C70.2244 55.0001 78.2344 47.8601 87.1144 47.8601V47.8801Z" fill="#390A66"/>
<path d="M103.814 27.1301C103.814 26.3401 104.524 25.6201 105.324 25.6201H112.064C112.854 25.6201 113.574 26.3301 113.574 27.1301V50.4901C115.164 49.3001 118.254 47.8701 121.984 47.8701C132.054 47.8701 136.184 55.6401 136.184 63.6501V78.8801C136.184 79.6701 135.474 80.3901 134.674 80.3901H128.254C127.384 80.3901 126.744 79.6801 126.744 78.8801V63.5701C126.744 59.2101 124.284 56.4301 120.474 56.4301C116.664 56.4301 114.364 58.8101 113.574 62.0601V78.8701C113.574 79.7401 113.094 80.3801 111.904 80.3801H105.324C104.534 80.3801 103.814 79.6701 103.814 78.8701V27.1301Z" fill="#390A66"/>
<path d="M174.764 30.99C174.764 27.98 177.144 25.52 180.154 25.52C183.164 25.52 185.704 27.98 185.704 30.99C185.704 34 183.244 36.46 180.154 36.46C177.064 36.46 174.764 34 174.764 30.99ZM175.474 50.17C175.474 49.3 176.184 48.66 176.984 48.66H183.564C184.354 48.66 185.074 49.29 185.074 50.17V78.88C185.074 79.67 184.364 80.39 183.564 80.39H176.984C176.194 80.39 175.474 79.68 175.474 78.88V50.17Z" fill="#390A66"/>
<path d="M158.864 27.1301C158.864 26.3401 159.574 25.6201 160.374 25.6201H167.034C167.824 25.6201 168.544 26.3301 168.544 27.1301V78.8801C168.544 79.6701 167.834 80.3901 167.034 80.3901H160.374C159.584 80.3901 158.864 79.6801 158.864 78.8801V27.1301Z" fill="#390A66"/>
<path d="M141.754 39.46C141.754 36.45 144.134 33.99 147.144 33.99C150.154 33.99 152.694 36.45 152.694 39.46C152.694 42.47 150.234 44.93 147.144 44.93C144.054 44.93 141.754 42.47 141.754 39.46ZM142.464 50.18C142.464 49.31 143.174 48.67 143.974 48.67H150.554C151.344 48.67 152.064 49.3 152.064 50.18V78.89C152.064 79.68 151.354 80.4 150.554 80.4H143.974C143.184 80.4 142.464 79.69 142.464 78.89V50.18Z" fill="#390A66"/>
<path d="M189.484 78.0899L200.744 57.3099V57.1499H191.704C190.914 57.1499 190.274 56.4399 190.274 55.6399V50.1699C190.274 49.2999 190.904 48.6599 191.704 48.6599H212.644C213.834 48.6599 214.624 49.7699 213.994 50.7999L202.494 71.7399V71.9799H211.064C211.934 71.9799 212.574 72.6099 212.574 73.4899V78.8799C212.574 79.6699 211.944 80.3899 211.064 80.3899H190.994C190.204 80.3899 189.484 79.6799 189.484 78.8799V78.0899Z" fill="#390A66"/>
<path d="M2.71444 27.6001L19.4144 17.2901C20.8844 16.4601 20.8844 14.7401 19.8244 13.6901L5.87444 0.200059C5.60444 -0.0699414 5.15444 -0.0699414 4.88444 0.200059L3.56444 1.53006C1.87444 3.23006 1.88444 5.97006 3.58444 7.66006L9.03444 12.6901C9.96444 13.6101 9.78444 15.1501 8.67444 15.8401L2.16444 19.8301C0.134443 21.0801 -0.495557 23.7501 0.764443 25.7801L1.74444 27.3701C1.94444 27.7001 2.38444 27.8001 2.71444 27.6001Z" fill="#FF1256"/>
<path d="M18.8344 82.9C20.2044 76.97 18.5844 70.74 14.4844 66.23L3.93444 54.27C-1.93556 47.61 -0.485564 37.29 6.99444 32.51L24.2544 21.48C25.3644 20.77 26.8244 20.9 27.7944 21.79C34.1044 27.61 56.0744 48.59 55.0944 70.26C55.0944 70.26 55.1244 103.91 21.9844 116.5C17.1144 118.35 12.1844 113.9 13.4644 108.85C18.0444 90.71 18.8444 82.89 18.8444 82.89L18.8344 82.9ZM23.1544 31.09C20.5144 32.76 15.4044 36 11.0444 38.77C8.12444 40.62 7.53444 44.63 9.79444 47.25L20.8244 60C27.1444 66.95 29.6544 76.55 27.5344 85.71L25.6844 93.82C24.8844 97.34 29.0344 99.8 31.7744 97.44C43.3944 87.41 59.6844 63.3 25.7044 31.34C25.0144 30.69 23.9644 30.59 23.1544 31.1V31.09Z" fill="#FF1256"/>
</g>
<defs>
<clipPath id="clip0_252_308">
<rect width="214.1" height="116.93" fill="white" transform="translate(0.114441)"/>
</clipPath>
</defs>
</svg>
